<!DOCTYPE svg PUBLIC "-//W3C//DTD SVG 1.1//EN" "http://www.w3.org/Graphics/SVG/1.1/DTD/svg11.dtd">
<!-- Uploaded to: SVG Repo, www.svgrepo.com, Transformed by: SVG Repo Mixer Tools -->
<svg fill="#ff0000" width="800px" height="800px" viewBox="-3.2 -3.2 38.40 38.40" xmlns="http://www.w3.org/2000/svg" stroke="#ff0000" stroke-width="0.00032" transform="rotate(0)matrix(1, 0, 0, 1, 0, 0)">
<g id="SVGRepo_bgCarrier" stroke-width="0" transform="translate(0,0), scale(1)">
<rect x="-3.2" y="-3.2" width="38.40" height="38.40" rx="19.2" fill="#0082ad" strokewidth="0"/>
</g>
<g id="SVGRepo_tracerCarrier" stroke-linecap="round" stroke-linejoin="round" stroke="#CCCCCC" stroke-width="0.064"/>
<g id="SVGRepo_iconCarrier"> <path d="M3,28H7v3a1,1,0,0,0,1,1h4a1,1,0,0,0,1-1V28h2v3a1,1,0,0,0,1,1h4a1,1,0,0,0,1-1V28h1a8,8,0,0,0,2.61-15.55A5,5,0,0,0,21,4V1a1,1,0,0,0-1-1H16a1,1,0,0,0-1,1V4H13V1a1,1,0,0,0-1-1H8A1,1,0,0,0,7,1V4H3A1,1,0,0,0,2,5V9a1,1,0,0,0,1,1H7V22H3a1,1,0,0,0-1,1v4A1,1,0,0,0,3,28Zm8,2H9V28h2Zm8,0H17V28h2ZM17,2h2V4H17ZM9,2h2V4H9ZM4,8V6H21a3,3,0,0,1,0,6H9V10H19a1,1,0,0,0,0-2H4ZM4,24H22a4,4,0,0,0,0-8H12a1,1,0,0,0-1,1v5H9V14H22a6,6,0,0,1,0,12H4Zm9-2V18h9a2,2,0,0,1,0,4Z"/> </g>
</svg>